<?xml version="1.0" encoding="utf-8"?>
<!-- Generator: Adobe Illustrator 17.0.1, SVG Export Plug-In . SVG Version: 6.00 Build 0)  -->
<!DOCTYPE svg PUBLIC "-//W3C//DTD SVG 1.1//EN" "http://www.w3.org/Graphics/SVG/1.1/DTD/svg11.dtd">
<svg version="1.1" id="Layer_1" xmlns="http://www.w3.org/2000/svg" xmlns:xlink="http://www.w3.org/1999/xlink" x="0px" y="0px"
	 width="167.085px" height="27.813px" viewBox="0 0 167.085 27.813" enable-background="new 0 0 167.085 27.813"
	 xml:space="preserve">
<path fill="#F05B25" d="M66.9,14.136c-0.31,0.649-0.595,1.251-0.856,1.803c0.112-0.997,0.274-2.016,0.486-3.058
	c0.07-0.442,0.145-0.913,0.224-1.412c0.08-0.499,0.161-1.006,0.243-1.522c0.081-0.517,0.192-1.034,0.332-1.551
	c0.14-0.517,0.293-1.018,0.457-1.5c0.666-1.421,1.245-2.504,1.738-3.25c0.492-0.746,0.864-1.118,1.115-1.118
	c0.206,0,0.309,0.333,0.309,1c0,0.439-0.129,1.119-0.385,2.04c-0.256,0.922-0.67,2.053-1.24,3.396
	c-0.174,0.394-0.395,0.875-0.661,1.441s-0.548,1.167-0.848,1.803C67.514,12.844,67.209,13.487,66.9,14.136 M54.82,11.024
	c0.174-0.706,0.366-1.433,0.574-2.182c0.208-0.75,0.431-1.436,0.669-2.059c0.237-0.623,0.484-1.134,0.741-1.535
	c0.257-0.401,0.511-0.601,0.763-0.601c0.184,0,0.327,0.035,0.429,0.105c0.102,0.07,0.177,0.157,0.225,0.262
	c0.049,0.105,0.08,0.216,0.095,0.334c0.014,0.118,0.022,0.225,0.022,0.321c0,0.278-0.083,0.633-0.248,1.067
	c-0.164,0.433-0.373,0.899-0.625,1.398c-0.252,0.498-0.535,1.005-0.85,1.521c-0.315,0.516-0.618,0.995-0.909,1.437
	c-0.155-0.013-0.305-0.024-0.45-0.034C55.11,11.048,54.965,11.037,54.82,11.024 M31.988,17.744c0,0.509-0.07,1.09-0.21,1.744
	s-0.326,1.211-0.557,1.672c-0.232,0.46-0.502,0.842-0.811,1.145c-0.309,0.303-0.628,0.454-0.956,0.454
	c-0.376,0-0.7-0.072-0.97-0.217s-0.487-0.338-0.651-0.58c-0.165-0.241-0.285-0.524-0.362-0.848c-0.078-0.325-0.116-0.672-0.116-1.04
	c0-0.729,0.077-1.383,0.232-1.962c0.154-0.579,0.366-1.107,0.637-1.586c0.27-0.478,0.584-0.871,0.941-1.178
	c0.357-0.307,0.733-0.46,1.129-0.46c0.299,0,0.555,0.074,0.768,0.223c0.212,0.15,0.386,0.351,0.521,0.606
	c0.135,0.254,0.236,0.555,0.304,0.901C31.954,16.965,31.988,17.34,31.988,17.744 M78.319,19.554
	c-0.704,0.678-0.673,0.697-1.203,1.149c-0.222,0.196-0.459,0.384-0.71,0.565c-0.251,0.182-0.507,0.344-0.767,0.486
	c-0.261,0.142-0.521,0.257-0.782,0.346c-0.261,0.088-0.507,0.132-0.738,0.132c-0.184,0-0.333-0.107-0.449-0.322
	c-0.116-0.214-0.174-0.5-0.174-0.858c0-0.652,0.089-1.279,0.268-1.878c0.178-0.599,0.523-1.31,1.035-2.133
	c0.512-0.822,0.859-1.522,1.043-2.099c0.183-0.577,0.275-1.169,0.275-1.778c0-0.304-0.044-0.552-0.131-0.744
	c-0.087-0.192-0.195-0.342-0.325-0.449c-0.131-0.108-0.268-0.181-0.413-0.222c-0.145-0.04-0.275-0.06-0.391-0.06
	c-0.463,0-0.958,0.16-1.484,0.48c-0.526,0.32-1.202,0.845-2.027,1.575c-0.826,0.73-1.484,1.375-1.977,1.934
	c-0.492,0.559-0.936,1.082-1.332,1.568l-0.289-0.186c0.328-0.558,0.707-1.205,1.136-1.941c0.43-0.736,0.867-1.518,1.311-2.347
	c0.444-0.829,0.878-1.684,1.303-2.566c0.424-0.882,0.804-1.753,1.137-2.612c0.333-0.86,0.6-1.689,0.803-2.487
	c0.203-0.798,0.304-1.525,0.304-2.181c0-0.441-0.038-0.84-0.116-1.198c-0.077-0.357-0.215-0.664-0.412-0.92
	c-0.198-0.256-0.464-0.454-0.797-0.596C72.084,0.071,71.657,0,71.136,0c-1.005,0-1.895,0.255-2.668,0.765s-1.447,1.197-2.022,2.063
	c-0.575,0.866-1.063,1.868-1.465,3.006c-0.401,1.138-0.702,2.337-0.905,3.597c-0.203,1.259-0.407,2.525-0.611,3.798
	c-0.205,1.273-0.346,2.502-0.423,3.689c-0.048,0.737-0.082,1.428-0.106,2.083c-0.282,0.278-0.593,0.55-0.936,0.816
	c-0.358,0.277-0.732,0.54-1.124,0.79c-0.391,0.25-0.787,0.48-1.188,0.691c-0.401,0.21-0.783,0.393-1.145,0.546
	c-0.363,0.154-0.696,0.274-1,0.362c-0.305,0.088-0.558,0.132-0.761,0.132c-0.329,0-0.627-0.046-0.894-0.139
	c-0.266-0.091-0.492-0.241-0.676-0.447c-0.184-0.206-0.325-0.472-0.421-0.796c-0.097-0.325-0.146-0.724-0.146-1.198
	c0-0.184,0.003-0.386,0.008-0.606c0.004-0.219,0.012-0.447,0.021-0.684c0.01-0.237,0.02-0.476,0.029-0.718
	c0.01-0.241,0.02-0.475,0.029-0.704c0.029-0.526,0.063-1.062,0.102-1.606c0.242-0.272,0.506-0.577,0.792-0.915
	c0.286-0.337,0.57-0.682,0.851-1.033h5.279c0.232,0,0.445-0.103,0.638-0.309c0.193-0.206,0.29-0.473,0.29-0.8
	c0-0.284-0.043-0.518-0.13-0.704c-0.087-0.185-0.227-0.283-0.42-0.293c-0.164-0.008-0.372-0.017-0.623-0.026
	s-0.521-0.018-0.811-0.026c-0.289-0.009-0.302-0.017-0.61-0.024c-0.31-0.007-0.597-0.014-0.862-0.021
	c-0.266-0.007-0.5-0.019-0.702-0.037c-0.203-0.018-0.348-0.012-0.436,0.017c0.348-0.49,0.679-0.983,0.993-1.481
	c0.313-0.498,0.586-0.99,0.818-1.474c0.231-0.485,0.415-0.962,0.55-1.43c0.136-0.468,0.203-0.912,0.203-1.333
	c0-0.508-0.065-0.997-0.196-1.466c-0.13-0.469-0.316-0.879-0.557-1.229c-0.242-0.351-0.534-0.632-0.877-0.842
	c-0.343-0.21-0.722-0.316-1.137-0.316c-0.646,0-1.263,0.261-1.85,0.781C55.449,3,54.907,3.691,54.411,4.553
	c-0.497,0.862-0.944,1.847-1.345,2.953c-0.4,1.107-0.729,2.251-0.99,3.433c-0.097,0.017-0.274,0.024-0.531,0.019
	c-0.257-0.004-0.548-0.01-0.873-0.019c-0.325-0.009-0.378-0.011-0.732-0.007c-0.354,0.005-0.679,0.025-0.975,0.061
	c-0.296,0.037-0.539,0.092-0.728,0.164c-0.189,0.073-0.284,0.179-0.284,0.317c0,0.088,0.005,0.193,0.015,0.315
	s0.044,0.239,0.102,0.352c0.058,0.112,0.151,0.21,0.277,0.293s0.306,0.139,0.539,0.168c0.525,0.059,0.882,0.139,1.159,0.178
	s0.262,0.045,0.442,0.079c0.179,0.034,0.349,0.068,0.51,0.102c0.16,0.034,0.386,0.071,0.678,0.11
	c-0.087,0.588-0.154,1.18-0.201,1.777c-0.01,0.116-0.014,0.224-0.021,0.337c-2.126,1.099-3.786-0.736-4.02-1.706
	c-0.13-0.54-0.297-0.803-0.427-0.908c-0.13-0.105-0.283-0.186-0.456-0.244c-0.174-0.057-0.353-0.085-0.536-0.085
	c-0.531,0-0.999,0.129-1.404,0.388c-0.406,0.259-0.768,0.577-1.086,0.954c-0.319,0.378-0.623,0.852-0.912,1.422
	c-0.29,0.571-0.531,1.031-0.724,1.382h-0.16c-0.019-0.447-0.005-0.969,0.044-1.566c0.048-0.597,0.072-1.058,0.072-1.382
	c0-0.272-0.007-0.488-0.022-0.645c-0.014-0.158-0.055-0.279-0.123-0.362c-0.067-0.084-0.171-0.136-0.311-0.158
	c-0.14-0.022-0.335-0.033-0.586-0.033c-0.223,0-0.408,0.011-0.558,0.033c-0.15,0.022-0.275,0.065-0.376,0.131
	c-0.102,0.066-0.191,0.156-0.268,0.27c-0.078,0.114-0.155,0.268-0.232,0.461c-0.125,0.289-0.251,0.658-0.376,1.106
	c-0.126,0.447-0.275,1.007-0.449,1.678c-0.022,0.083-0.039,0.161-0.059,0.243c-0.219-0.243-0.438-0.485-0.668-0.737
	c-0.603-0.658-1.255-1.204-1.955-1.639c-0.7-0.434-1.45-0.781-2.251-1.039c-0.801-0.259-1.66-0.389-2.577-0.389
	c-1.072,0-2.037,0.178-2.896,0.533c-0.859,0.356-1.586,0.843-2.179,1.461c-0.594,0.619-1.05,1.348-1.369,2.185
	c-0.318,0.839-0.477,1.837-0.477,2.995c0,0.667,0.083,1.326,0.244,1.978c-0.073,0.048-0.142,0.1-0.216,0.148
	c-0.497,0.32-1.004,0.585-1.52,0.796c-0.516,0.211-1.006,0.316-1.47,0.316c-0.328,0-0.609-0.061-0.842-0.184
	c-0.233-0.123-0.426-0.285-0.579-0.487c-0.153-0.202-0.273-0.43-0.361-0.685c-0.089-0.254-0.156-0.515-0.202-0.783
	c-0.047-0.267-0.077-0.531-0.091-0.79c-0.014-0.259-0.021-0.493-0.021-0.704c0-0.649,0.044-1.34,0.133-2.073
	c0.088-0.733,0.197-1.479,0.327-2.238c0.13-0.759,0.273-1.536,0.431-2.333c0.158-0.795,0.301-1.566,0.431-2.313
	c0.13-0.746,0.239-1.453,0.327-2.122c0.088-0.669,0.132-1.276,0.132-1.822c0-0.417-0.057-0.843-0.17-1.277
	c-0.114-0.434-0.296-0.832-0.547-1.192c-0.251-0.36-0.571-0.655-0.959-0.884s-0.857-0.344-1.406-0.344
	c-0.484,0-0.984,0.066-1.501,0.197c-0.517,0.132-1.054,0.369-1.61,0.711s-1.126,0.814-1.711,1.415
	c-0.585,0.601-1.189,1.373-1.812,2.317c-0.624,0.943-1.26,2.079-1.907,3.409c-0.648,1.329-1.306,2.889-1.973,4.679l-0.246-0.075
	c0.361-0.851,0.838-2.253,1.273-4.349s0.653-3.513,0.653-4.249c0-0.591-0.063-1.128-0.188-1.612C8.605,4.5,8.398,4.086,8.108,3.741
	C7.819,3.396,7.44,3.128,6.972,2.935C6.503,2.743,5.927,2.646,5.241,2.646c-0.454,0-0.917,0.1-1.39,0.301
	C3.378,3.148,2.912,3.469,2.454,3.912C1.996,4.354,1.561,4.933,1.151,5.65c-0.41,0.716-0.775,1.589-1.093,2.62
	C0.019,8.308,0,8.356,0,8.413c0,0.105,0.039,0.222,0.116,0.351c0.077,0.128,0.173,0.25,0.289,0.365
	c0.116,0.114,0.241,0.212,0.377,0.293c0.135,0.081,0.265,0.121,0.391,0.121c0.154,0,0.294-0.03,0.42-0.092
	C1.718,9.389,1.81,9.286,1.868,9.143C2.119,8.647,2.396,8.184,2.7,7.754c0.304-0.429,0.603-0.803,0.898-1.123
	c0.294-0.32,0.579-0.57,0.854-0.751c0.275-0.181,0.509-0.272,0.703-0.272c0.144,0,0.253,0.043,0.325,0.129
	c0.073,0.086,0.123,0.189,0.152,0.308C5.661,6.164,5.676,6.29,5.676,6.421v0.323C5.62,7.68,5.555,8.56,5.483,9.384
	c-0.072,0.824-0.176,1.594-0.312,2.309c-0.136,0.716-0.272,1.431-0.408,2.146c-0.136,0.716-0.297,1.464-0.481,2.244
	c-0.184,0.78-0.378,1.601-0.581,2.461c-0.204,0.86-0.424,1.795-0.661,2.806c-0.077,0.308-0.135,0.611-0.173,0.909
	c-0.039,0.298-0.058,0.631-0.058,1c0,0.351,0.053,0.665,0.159,0.941c0.106,0.277,0.251,0.509,0.434,0.698
	c0.184,0.189,0.394,0.331,0.63,0.428c0.237,0.096,0.48,0.145,0.732,0.145c0.434,0,0.827-0.099,1.18-0.297
	c0.352-0.197,0.663-0.533,0.933-1.007c0.319-0.892,0.662-1.843,1.029-2.852c0.367-1.009,0.746-2.033,1.138-3.073
	c0.391-1.04,0.797-2.075,1.217-3.107c0.42-1.031,0.845-2.013,1.275-2.945c0.43-0.933,0.863-1.804,1.297-2.612
	c0.435-0.808,0.868-1.506,1.297-2.095c0.43-0.589,0.851-1.051,1.261-1.386c0.411-0.335,0.809-0.502,1.196-0.502
	c0.233,0,0.417,0.081,0.553,0.243C17.276,6,17.376,6.191,17.439,6.41c0.063,0.219,0.104,0.448,0.124,0.687
	c0.019,0.239,0.029,0.429,0.029,0.572c0,0.519-0.061,1.058-0.182,1.617c-0.122,0.56-0.27,1.137-0.444,1.733
	c-0.175,0.596-0.369,1.196-0.583,1.802c-0.214,0.605-0.408,1.226-0.583,1.862c-0.174,0.637-0.323,1.284-0.444,1.942
	c-0.121,0.658-0.182,1.329-0.182,2.014c0,0.518,0.031,1.053,0.094,1.606c0.062,0.553,0.168,1.097,0.317,1.632
	c0.149,0.535,0.349,1.042,0.599,1.52c0.25,0.479,0.56,0.898,0.93,1.257c0.371,0.36,0.811,0.645,1.321,0.856
	c0.509,0.211,1.101,0.316,1.774,0.316c0.522,0,1.05-0.059,1.586-0.178c0.535-0.118,1.069-0.283,1.6-0.493
	c0.531-0.211,1.05-0.459,1.556-0.744c0.246-0.139,0.485-0.283,0.719-0.433c0.302,0.31,0.645,0.58,1.041,0.801
	c0.603,0.338,1.329,0.507,2.179,0.507c0.588,0,1.144-0.092,1.665-0.276s1.001-0.435,1.44-0.751c0.44-0.316,0.831-0.689,1.173-1.119
	c0.343-0.429,0.632-0.89,0.869-1.382c0.237-0.491,0.417-1,0.543-1.526c0.125-0.527,0.188-1.049,0.188-1.567
	c0-0.711-0.07-1.349-0.21-1.915s-0.35-1.103-0.629-1.612l0.115-0.145c0.348,0.21,0.763,0.472,1.245,0.783
	c0.483,0.311,0.973,0.691,1.47,1.139c0.463,0.416,0.9,0.795,1.317,1.143c-0.093,0.508-0.179,1.011-0.25,1.502
	c-0.082,0.571-0.147,1.113-0.195,1.626c-0.049,0.513-0.073,0.963-0.073,1.349c0,0.351,0.022,0.691,0.065,1.021
	c0.044,0.328,0.131,0.622,0.261,0.881c0.13,0.259,0.316,0.465,0.558,0.619c0.241,0.153,0.559,0.23,0.955,0.23
	c0.174,0,0.333-0.028,0.478-0.085c0.145-0.057,0.28-0.156,0.405-0.297c0.126-0.14,0.249-0.322,0.37-0.546
	c0.12-0.223,0.248-0.507,0.383-0.849l2.592-6.568c0.229-0.579,0.822-1.14,1.039-0.887c2.371,2.489,5.003,2.328,6.765,1.64
	c0.039,0.895,0.122,1.726,0.254,2.485c0.187,1.079,0.468,1.999,0.842,2.757c0.375,0.76,0.84,1.341,1.397,1.745
	c0.557,0.404,1.2,0.605,1.93,0.605c0.357,0,0.756-0.061,1.196-0.184c0.44-0.123,0.942-0.307,1.508-0.553
	c0.565-0.246,1.21-0.553,1.936-0.921c0.701-0.357,1.5-0.772,2.391-1.244c0,0.047,0,0.1,0,0.145c0,0.346,0.014,0.684,0.043,1.014
	c0.029,0.33,0.092,0.625,0.188,0.884c0.097,0.26,0.237,0.468,0.42,0.624c0.184,0.157,0.435,0.235,0.753,0.235
	c0.241,0,0.439-0.045,0.594-0.136c0.154-0.09,0.297-0.224,0.427-0.402c0.13-0.177,0.263-0.411,0.398-0.701
	c0.135-0.291,0.309-0.632,0.521-1.023c0.425-0.789,0.9-1.555,1.427-2.298c0.526-0.741,1.035-1.41,1.527-2.004
	c0.492-0.595,0.934-1.087,1.325-1.478c0.391-0.39,0.668-0.634,0.833-0.729l0.304,0.04c-0.031,0.027-0.096,0.124-0.196,0.292
	c-0.101,0.169-0.219,0.386-0.354,0.652c-0.136,0.266-0.282,0.567-0.437,0.904c-0.156,0.337-0.297,0.683-0.422,1.037
	c-0.126,0.355-0.231,0.707-0.317,1.057c-0.085,0.351-0.128,0.667-0.128,0.951c0,0.401,0.064,0.828,0.193,1.28
	c0.128,0.451,0.321,0.867,0.578,1.247c0.257,0.381,0.585,0.695,0.985,0.941c0.4,0.247,0.872,0.37,1.415,0.37
	c0.348,0,0.712-0.049,1.093-0.148c0.382-0.099,0.763-0.225,1.144-0.377c0.382-0.153,0.76-0.328,1.137-0.526
	c0.376-0.197,0.726-0.393,1.05-0.587c0.323-0.194,0.617-0.377,0.883-0.55c0.265-0.173,0.485-0.317,0.659-0.433
	C81.465,20.817,79.35,18.562,78.319,19.554 M158.44,22.002c-0.066,0.25-0.159,0.474-0.304,0.664
	c-0.145,0.192-0.341,0.344-0.587,0.46c-0.246,0.115-0.557,0.173-0.934,0.173c-0.309,0-0.584-0.067-0.825-0.2
	c-0.241-0.133-0.454-0.28-0.637-0.439c-0.183-0.16-0.345-0.306-0.485-0.439c-0.14-0.133-0.268-0.2-0.384-0.2l4.011-3.832
	c0.048,0.142,0.104,0.313,0.166,0.513C158.524,18.901,158.898,20.269,158.44,22.002 M141.748,15.908
	c-0.466-3.047,1.166-7.256,1.587-8.452c0.936-2.665,1.244-4.457,3.359-4.421C148.809,3.071,143.576,12.789,141.748,15.908
	 M119.99,17.744c0,0.509-0.07,1.09-0.21,1.744s-0.326,1.211-0.557,1.672c-0.232,0.46-0.502,0.842-0.811,1.145
	c-0.309,0.303-0.628,0.454-0.956,0.454c-0.376,0-0.7-0.072-0.97-0.217c-0.27-0.145-0.488-0.338-0.651-0.58
	c-0.165-0.241-0.285-0.524-0.363-0.848c-0.077-0.325-0.115-0.672-0.115-1.04c0-0.729,0.077-1.383,0.231-1.962
	c0.155-0.579,0.367-1.107,0.638-1.586c0.27-0.478,0.583-0.871,0.941-1.178c0.357-0.307,0.733-0.46,1.129-0.46
	c0.299,0,0.555,0.074,0.767,0.223c0.213,0.15,0.386,0.351,0.522,0.606c0.135,0.254,0.236,0.555,0.304,0.901
	C119.956,16.965,119.99,17.34,119.99,17.744 M99.968,12.966c0.169-0.741,0.353-1.394,0.551-1.959
	c0.198-0.565,0.306-1.019,0.325-1.363V9.522c0-0.316-0.08-0.576-0.241-0.779c-0.16-0.203-0.484-0.305-0.97-0.305
	c-0.37,0-0.684,0.072-0.942,0.217c-0.257,0.145-0.479,0.333-0.664,0.566c-0.185,0.232-0.333,0.491-0.445,0.777
	c-0.112,0.285-0.197,0.568-0.255,0.849c-0.059,0.281-0.101,0.531-0.124,0.751c-0.025,0.22-0.041,0.426-0.051,0.617l-0.015-0.02
	c-0.057,0-0.179,0.004-0.365,0.011c-0.186,0.007-0.389,0.016-0.609,0.025c-0.219,0.01-0.429,0.019-0.63,0.026
	c-0.2,0.008-0.334,0.011-0.401,0.011c-0.153,0-0.275,0.041-0.366,0.124c-0.09,0.082-0.159,0.181-0.207,0.298
	c-0.048,0.116-0.079,0.242-0.093,0.377c-0.014,0.136-0.022,0.252-0.022,0.349c0,0.351,0.194,0.659,0.58,0.926
	c0.385,0.267,0.95,0.555,1.694,0.863c0,0.2-0.011,0.488-0.034,0.866c-0.022,0.377-0.06,0.811-0.113,1.299
	c-0.054,0.489-0.111,1.015-0.173,1.578c-0.061,0.563-0.123,1.122-0.183,1.676c-0.061,0.555-0.163,1.088-0.308,1.602
	c-0.145,0.513-0.314,0.965-0.507,1.356c-0.193,0.39-0.415,0.702-0.666,0.934c-0.251,0.233-0.541,0.349-0.869,0.349
	c-0.647,0-1.199-0.178-1.658-0.533c-0.458-0.355-0.832-0.818-1.122-1.389c-0.289-0.57-0.502-1.213-0.637-1.928
	c-0.135-0.715-0.202-1.428-0.202-2.139c0-0.922,0.094-1.891,0.283-2.909c0.188-1.018,0.49-2.023,0.906-3.015
	c0.416-0.991,0.957-1.939,1.625-2.843c0.667-0.903,1.475-1.698,2.422-2.382c0.949-0.684,2.049-1.229,3.301-1.632
	c1.253-0.404,2.676-0.606,4.272-0.606c0.867,0,1.628,0.09,2.284,0.27c0.654,0.18,1.204,0.421,1.647,0.724
	c0.443,0.303,0.778,0.652,1.004,1.046c0.227,0.395,0.34,0.808,0.34,1.238c0,0.453-0.127,0.922-0.381,1.406
	c-0.254,0.485-0.695,0.931-1.325,1.339c-0.63,0.408-1.482,0.745-2.559,1.012C102.988,12.792,101.623,12.939,99.968,12.966
	 M165.484,20.285c-0.744,0.302-0.905,0.433-1.34,0.619c-0.434,0.186-0.851,0.366-1.252,0.539c-0.4,0.173-0.963,0.203-1.122,0.578
	c0.555-1.31-0.097-3.608-0.176-3.852c-0.079-0.244-0.155-0.474-0.229-0.691c-0.074-0.218-0.133-0.439-0.177-0.666
	c-0.045-0.226-0.067-0.476-0.067-0.751c0.03-0.098,0.143-0.246,0.341-0.446s0.408-0.419,0.63-0.659
	c0.222-0.239,0.425-0.488,0.608-0.745c0.184-0.257,0.275-0.492,0.275-0.705c0-0.106-0.009-0.233-0.029-0.379
	c-0.019-0.147-0.086-0.286-0.202-0.419s-0.3-0.246-0.55-0.34c-0.252-0.093-0.609-0.139-1.073-0.139c-0.28,0-0.533,0.037-0.76,0.113
	c-0.227,0.075-0.434,0.173-0.622,0.292c-0.189,0.12-0.36,0.255-0.514,0.406c-0.155,0.151-0.295,0.306-0.42,0.466
	c-0.618,0.71-1.12,1.302-1.506,1.776c-0.386,0.475-0.715,0.876-0.985,1.204c-0.27,0.329-0.504,0.612-0.702,0.852
	c-0.198,0.239-0.466,0.548-0.803,0.925c-0.338,0.377-0.676,0.707-1.014,0.991c-0.338,0.284-0.454,0.383-0.995,0.809
	c-0.077,0.062-0.583,0.453-0.738,0.56c-0.052,0.036-0.093,0.076-0.133,0.119l-0.013-0.011c-0.667,0.651-0.736,0.633-1.8,1.45
	c-0.204,0.156-0.89,0.547-1.28,0.578c-0.426,0.034-0.599-0.1-0.789-0.208c-1.372-0.773-1.855-2.847-2.285-3.851
	c0.598-0.595,3.492-2.474,4.747-3.19c1.254-0.717,1.577-1.291,0.772-2.84c-0.804-1.549-6.676,2.924-7.301,3.7
	c0,0,1.954-2.808,2.302-3.471c0.347-0.662,0.709-1.405,1.086-2.226c0.376-0.821,0.724-1.667,1.042-2.537
	c0.319-0.87,0.582-1.738,0.789-2.604c0.208-0.866,0.312-1.674,0.312-2.425c0-0.419-0.039-0.808-0.116-1.166
	c-0.078-0.358-0.21-0.666-0.398-0.924c-0.189-0.258-0.442-0.459-0.761-0.603c-0.318-0.144-0.724-0.216-1.216-0.216
	c-0.711,0-1.279,0.115-1.739,0.354c-0.516,0.269-1.019,0.558-1.464,0.965c-0.444,0.407-0.845,0.882-1.202,1.425
	c-0.358,0.542-0.679,1.113-0.964,1.713c-0.285,0.599-0.526,1.22-0.722,1.862c-0.197,0.642-0.384,1.254-0.562,1.837
	c-0.179,0.582-0.32,1.131-0.424,1.647c-0.104,0.516-0.192,0.951-0.264,1.306c-0.183,1.035-0.34,2.101-0.47,3.197
	c-0.131,1.098-0.234,2.148-0.311,3.151c-0.003,0.035-0.005,0.068-0.008,0.102c-0.593,0.654-1.789,1.933-2.217,2.33
	c-0.512,0.474-1.05,0.908-1.615,1.303c-0.564,0.395-1.126,0.722-1.686,0.981c-0.56,0.258-1.072,0.388-1.535,0.388
	c-0.471,0-0.855-0.094-1.153-0.283s-0.541-0.426-0.729-0.711c-0.187-0.285-0.312-0.599-0.374-0.941
	c-0.063-0.342-0.094-0.671-0.094-0.987c0-0.211,0.01-0.472,0.029-0.784c0.019-0.311,0.07-0.638,0.151-0.98
	c0.082-0.342,0.219-0.766,0.411-1.27c0.193-0.505,0.387-0.895,0.584-1.172c0.197-0.276,0.435-0.5,0.714-0.671
	c0.278-0.171,0.615-0.257,1.009-0.257c0.163,0,0.269,0.071,0.317,0.211c0.048,0.14,0.072,0.316,0.072,0.526
	c0.01,0.246,0.005,0.404-0.015,0.474c-0.144,0.509-0.23,0.834-0.259,0.974c-0.086,0.263-0.013,0.566,0.221,0.908
	c0.143,0.22,0.458,0.33,0.946,0.33c0.324,0,0.614-0.07,0.87-0.211c0.255-0.14,0.519-0.406,0.791-0.796
	c0.271-0.391,0.454-0.731,0.548-1.021c0.094-0.289,0.141-0.583,0.141-0.881c0-0.43-0.1-0.832-0.3-1.205
	c-0.201-0.373-0.478-0.695-0.832-0.967c-0.354-0.272-0.78-0.485-1.279-0.639c-0.498-0.153-1.04-0.23-1.625-0.23
	c-0.65,0-1.247,0.108-1.79,0.322c-0.544,0.215-1.036,0.505-1.478,0.869c-0.441,0.365-0.829,0.788-1.164,1.271
	c-0.335,0.482-0.616,0.989-0.844,1.52c-0.024,0.054-0.046,0.114-0.07,0.171c-0.264-0.294-0.535-0.594-0.817-0.902
	c-0.604-0.658-1.255-1.204-1.955-1.639c-0.7-0.434-1.45-0.781-2.251-1.039c-0.802-0.259-1.661-0.389-2.578-0.389
	c-1.071,0-2.036,0.178-2.896,0.533c-0.859,0.356-1.585,0.843-2.178,1.461c-0.594,0.619-1.05,1.348-1.369,2.185
	c-0.318,0.839-0.478,1.837-0.478,2.995c0,0.702,0.089,1.395,0.268,2.08c0.052,0.197,0.114,0.386,0.182,0.571
	c-0.086,0.059-0.169,0.122-0.259,0.179c-0.4,0.254-0.806,0.474-1.216,0.658c-0.41,0.184-0.811,0.327-1.202,0.428
	c-0.391,0.101-0.75,0.151-1.078,0.151c-0.347,0-0.623-0.099-0.829-0.298s-0.377-0.465-0.512-0.797
	c-0.136-0.332-0.264-0.706-0.382-1.124c-0.12-0.418-0.229-0.853-0.33-1.305c-0.102-0.452-0.256-0.94-0.464-1.465
	c-0.208-0.525-0.463-1.007-0.764-1.447c-0.301-0.441-0.677-0.839-1.126-1.197c-0.45-0.357-1.009-0.649-1.678-0.875
	c1.108-0.058,2.107-0.2,2.993-0.425c0.887-0.224,1.678-0.504,2.372-0.839s1.29-0.714,1.787-1.137
	c0.496-0.422,0.903-0.861,1.221-1.315c0.318-0.453,0.555-0.914,0.709-1.381c0.154-0.467,0.232-0.912,0.232-1.335
	c0-0.649-0.116-1.25-0.348-1.803c-0.231-0.553-0.547-1.055-0.947-1.507c-0.4-0.452-0.877-0.853-1.431-1.204
	c-0.555-0.351-1.155-0.645-1.801-0.882c-0.647-0.237-1.326-0.417-2.04-0.54c-0.713-0.123-1.431-0.184-2.154-0.184
	c-1.634,0-3.184,0.197-4.648,0.592c-1.464,0.395-2.818,0.946-4.06,1.652c-1.242,0.707-2.361,1.545-3.356,2.514
	c-0.996,0.97-1.844,2.034-2.546,3.192c-0.7,1.159-1.237,2.389-1.609,3.692s-0.558,2.635-0.558,3.995
	c0,0.755,0.065,1.514,0.196,2.277c0.13,0.764,0.323,1.503,0.579,2.218c0.255,0.716,0.576,1.385,0.962,2.008
	c0.386,0.623,0.838,1.167,1.354,1.632c0.517,0.465,1.096,0.831,1.738,1.099c0.642,0.268,1.348,0.401,2.121,0.401
	c0.975,0,1.799-0.282,2.472-0.845c0.672-0.564,1.232-1.379,1.679-2.445c0.447-1.066,0.805-2.363,1.076-3.892
	c0.272-1.528,0.556-3.241,0.854-5.138h1.007c0.416,0,0.762,0.158,1.039,0.474c0.277,0.316,0.511,0.748,0.701,1.297
	c0.191,0.549,0.371,1.178,0.539,1.89c0.168,0.712,0.325,1.374,0.47,1.988c0.146,0.614,0.335,1.252,0.568,1.914
	c0.233,0.662,0.524,1.253,0.873,1.77c0.349,0.518,0.774,0.934,1.274,1.25c0.5,0.316,1.104,0.474,1.812,0.474
	c0.627,0,1.242-0.062,1.845-0.184c0.603-0.123,1.175-0.277,1.716-0.461c0.54-0.184,1.035-0.384,1.484-0.599
	c0.449-0.215,0.837-0.413,1.166-0.592c0.104-0.058,0.199-0.111,0.289-0.162c0.116,0.079,0.234,0.157,0.359,0.227
	c0.604,0.338,1.33,0.507,2.18,0.507c0.588,0,1.143-0.092,1.664-0.276c0.522-0.184,1.002-0.435,1.441-0.751
	c0.439-0.316,0.83-0.689,1.173-1.119c0.342-0.429,0.632-0.89,0.869-1.382c0.236-0.491,0.417-1,0.543-1.526
	c0.125-0.527,0.188-1.049,0.188-1.567c0-0.711-0.07-1.349-0.21-1.915s-0.35-1.103-0.63-1.612l0.116-0.145
	c0.348,0.21,0.762,0.472,1.245,0.783c0.483,0.311,0.973,0.691,1.47,1.139c0.458,0.412,0.891,0.787,1.304,1.132
	c-0.189,0.699-0.284,1.301-0.284,1.803c0,0.711,0.116,1.395,0.349,2.053s0.578,1.237,1.035,1.738c0.457,0.5,1.023,0.899,1.698,1.198
	c0.675,0.298,1.46,0.447,2.354,0.447c0.51,0,1.013-0.072,1.51-0.217c0.497-0.145,0.975-0.334,1.434-0.566
	c0.458-0.232,0.897-0.498,1.317-0.796c0.42-0.299,0.809-0.606,1.166-0.922c0.736-0.646,1.425-1.374,2.071-2.175
	c-0.032,0.747-0.049,1.36-0.049,1.827c0,0.389,0.016,0.754,0.051,1.097c0.033,0.342,0.113,0.644,0.238,0.904
	c0.126,0.26,0.309,0.466,0.551,0.619c0.241,0.153,0.569,0.229,0.984,0.229c0.309,0,0.579-0.065,0.811-0.196
	c0.232-0.131,0.676-0.416,0.704-0.772c0.146-1.7,1.25-4.033,1.393-4.069c0.86,2.617,2.512,4.426,3.482,4.823
	c0.427,0.174,0.689,0.333,1.384,0.333c0.531,0,1.028-0.094,1.41-0.229c0.621-0.219,1.156-0.43,1.696-0.78
	c0.49-0.318,1.057-0.69,1.516-1.006c0.054-0.037,0.1-0.079,0.15-0.118c0.072,0.295,0.188,0.558,0.354,0.785
	c0.231,0.32,0.533,0.578,0.904,0.775c0.372,0.197,0.804,0.342,1.296,0.434c0.493,0.092,1.023,0.139,1.593,0.139
	c0.791,0,1.629-0.079,2.512-0.235c0.883-0.157,1.759-0.371,2.627-0.641c0.867-0.271,1.666-0.656,2.481-0.94
	C168.622,22.264,166.778,19.759,165.484,20.285"/>
</svg>
